# xmcd
#
# Track frame offsets:
#	150
#	23236
#	35286
#	45598
#	64666
#	76778
#	91335
#	106817
#	119172
#	135631
#
# Disc length: 2085 seconds
#
# Revision: 0
# Processed by: cddbd v1.5.2PL0 Copyright (c) Steve Scherf et al.
# Submitted via: EasyCDDAExtractor 12.0.1.1
#
DISCID=7908230a
DTITLE=Randy Newman - Harps and Angels
DYEAR=2008
DGENRE=Ballad
TTITLE0=Harps and Angels
TTITLE1=Losing you
TTITLE2=Laugh and Be Happy
TTITLE3=A Few Word in Defense of Our Country
TTITLE4=A piece of the Pie
TTITLE5=Easy Street
TTITLE6=Korean Parents
TTITLE7=Only a Girl
TTITLE8=Photoles
TTITLE9=Feels like Home
EXTD=
EXTT0=
EXTT1=
EXTT2=
EXTT3=
EXTT4=
EXTT5=
EXTT6=
EXTT7=
EXTT8=
EXTT9=
PLAYORDER=
